<svg xmlns="http://www.w3.org/2000/svg" width="826.56" height="547.84"><defs><clipPath id="a"><path d="M0 0h2584v1708.9H0z" clip-rule="evenodd"/></clipPath></defs><g clip-path="url(#a)" transform="scale(.32)"><path fill="none" stroke="#000" stroke-miterlimit="10" stroke-width="2.998" d="M1275.692 355.275v220.75"/><path d="m1275.692 591.765-10.494-20.987 10.494 5.247 10.493-5.247z"/><path fill="none" stroke="#000" stroke-miterlimit="10" stroke-width="2.998" d="m1275.692 591.765-10.494-20.987 10.494 5.247 10.493-5.247z"/><path fill="#fff" d="M1046.337 455.711h458.71v38.976h-458.71z"/><text font-family="sans-serif" font-size="11" transform="translate(1046.247 485.692)scale(2.9981)" xml:space="preserve"><tspan x="0 5.5 9.163 15.474 19.137 21.581 27.699 33.816 39.934 42.378 48.496 57.659 63.776 69.276 75.394 82.731 88.849 94.966 97.41 103.528 111.472 117.589 123.707 129.825 132.881 138.999 145.718" y="0">xrTriangleMeshBeginUpdateFB</tspan></text><path fill="#fff" d="M1122.789 175.389h305.806a26.9 26.9 0 0 1 10.325 2.054 26.9 26.9 0 0 1 8.755 5.85 26.9 26.9 0 0 1 5.849 8.753 26.9 26.9 0 0 1 2.054 10.326v125.92q0 2.658-.519 5.264a27 27 0 0 1-1.535 5.062 27 27 0 0 1-2.494 4.665q-1.476 2.21-3.355 4.089c-1.88 1.879-2.616 2.37-4.09 3.355s-3.027 1.816-4.664 2.494q-2.455 1.017-5.062 1.535c-2.607.518-3.493.519-5.264.519h-305.806q-2.658 0-5.265-.519a27 27 0 0 1-5.061-1.535 26.9 26.9 0 0 1-8.754-5.85 26.9 26.9 0 0 1-5.85-8.753 26.9 26.9 0 0 1-2.053-10.326v-125.92a26.9 26.9 0 0 1 2.054-10.326 26.9 26.9 0 0 1 5.849-8.754 26.9 26.9 0 0 1 8.754-5.85 26.9 26.9 0 0 1 10.326-2.054z"/><path fill="none" stroke="#000" stroke-miterlimit="10" stroke-width="2.998" d="M1122.789 175.389h305.806a26.9 26.9 0 0 1 10.325 2.054 26.9 26.9 0 0 1 8.755 5.85 26.9 26.9 0 0 1 5.849 8.753 26.9 26.9 0 0 1 2.054 10.326v125.92q0 2.658-.519 5.264a27 27 0 0 1-1.535 5.062 27 27 0 0 1-2.494 4.665q-1.476 2.21-3.355 4.089c-1.88 1.879-2.616 2.37-4.09 3.355s-3.027 1.816-4.664 2.494q-2.455 1.017-5.062 1.535c-2.607.518-3.493.519-5.264.519h-305.806q-2.658 0-5.265-.519a27 27 0 0 1-5.061-1.535 26.9 26.9 0 0 1-8.754-5.85 26.9 26.9 0 0 1-5.85-8.753 26.9 26.9 0 0 1-2.053-10.326v-125.92a26.9 26.9 0 0 1 2.054-10.326 26.9 26.9 0 0 1 5.849-8.754 26.9 26.9 0 0 1 8.754-5.85 26.9 26.9 0 0 1 10.326-2.054z"/><text font-family="sans-serif" font-size="12" transform="translate(1115.143 275.825)scale(2.9981)" xml:space="preserve"><tspan x="0 6 12.674 19.348 26.021 28.688 35.361 42.035 48.035 51.369 60.035 66.709 73.383 80.057 83.391 86.057 92.73 99.404" y="0">Topology Undefined</tspan></text><path fill="none" stroke="#000" stroke-miterlimit="10" stroke-width="2.998" d="M2205.133 1344.648q-.031 59.961-419.764 59.962t-419.734-220.75"/><path d="m1365.635 1168.12 10.493 20.986-10.493-5.246-10.494 5.246z"/><path fill="none" stroke="#000" stroke-miterlimit="10" stroke-width="2.998" d="m1365.635 1168.12 10.493 20.986-10.493-5.246-10.494 5.246z"/><path fill="#fff" d="M1478.063 1385.122h434.725v38.975h-434.725z"/><text font-family="sans-serif" font-size="11" transform="translate(1478.813 1415.103)scale(2.9981)" xml:space="preserve"><tspan x="0 5.5 9.163 15.474 19.137 21.581 27.699 33.816 39.934 42.378 48.496 57.659 63.776 69.276 75.394 82.731 88.849 94.966 102.91 109.028 115.146 121.263 124.319 130.437 137.156" y="0">xrTriangleMeshEndUpdateFB</tspan></text><path fill="#fff" d="M2052.23 1164.762h305.806a26.9 26.9 0 0 1 10.325 2.054 27 27 0 0 1 4.665 2.493 26.9 26.9 0 0 1 7.445 7.445 26.93 26.93 0 0 1 4.548 14.991v125.92a26.9 26.9 0 0 1-2.054 10.326 26.9 26.9 0 0 1-5.85 8.754 27 27 0 0 1-4.089 3.356 26.9 26.9 0 0 1-9.726 4.03 27 27 0 0 1-5.264.518H2052.23a26.9 26.9 0 0 1-10.326-2.054 26.9 26.9 0 0 1-8.754-5.85 27 27 0 0 1-3.356-4.089 26.9 26.9 0 0 1-4.547-14.99v-125.92a26.9 26.9 0 0 1 2.053-10.327 26.9 26.9 0 0 1 5.85-8.754 26.9 26.9 0 0 1 8.754-5.85 26.9 26.9 0 0 1 10.326-2.054z"/><path fill="none" stroke="#000" stroke-miterlimit="10" stroke-width="2.998" d="M2052.23 1164.762h305.806a26.9 26.9 0 0 1 10.325 2.054 27 27 0 0 1 4.665 2.493 26.9 26.9 0 0 1 7.445 7.445 26.93 26.93 0 0 1 4.548 14.991v125.92a26.9 26.9 0 0 1-2.054 10.326 26.9 26.9 0 0 1-5.85 8.754 27 27 0 0 1-4.089 3.356 26.9 26.9 0 0 1-9.726 4.03 27 27 0 0 1-5.264.518H2052.23a26.9 26.9 0 0 1-10.326-2.054 26.9 26.9 0 0 1-8.754-5.85 27 27 0 0 1-3.356-4.089 26.9 26.9 0 0 1-4.547-14.99v-125.92a26.9 26.9 0 0 1 2.053-10.327 26.9 26.9 0 0 1 5.85-8.754 26.9 26.9 0 0 1 8.754-5.85 26.9 26.9 0 0 1 10.326-2.054z"/><text font-family="sans-serif" font-size="12" transform="translate(2082.6 1265.198)scale(2.9981)" xml:space="preserve"><tspan x="0 8.666 15.34 22.014 28.688 32.021 34.688 41.361 48.035 51.369 61.365 68.039 74.039" y="0">Updating Mesh</tspan></text><path fill="none" stroke="#000" stroke-miterlimit="10" stroke-width="2.998" d="M376.262 1344.648q0 59.961 404.743 59.962c404.743 0 404.744-73.582 404.744-220.75"/><path d="m1185.749 1168.12 10.493 20.986-10.493-5.246-10.494 5.246z"/><path fill="none" stroke="#000" stroke-miterlimit="10" stroke-width="2.998" d="m1185.749 1168.12 10.493 20.986-10.493-5.246-10.494 5.246z"/><path fill="#fff" d="M563.643 1385.122h614.61v38.975h-614.61z"/><text font-family="sans-serif" font-size="11" transform="translate(563.913 1415.103)scale(2.9981)" xml:space="preserve"><tspan x="0 5.5 9.163 15.474 19.137 21.581 27.699 33.816 39.934 42.378 48.496 57.659 63.776 69.276 75.394 82.731 88.849 94.966 101.696 107.814 111.477 114.533 120.651 126.151 133.488 139.605 142.463 145.519 151.637 155.3 163.244 169.361 175.479 181.597 184.653 190.771 197.49" y="0">xrTriangleMeshEndVertexBufferUpdateFB</tspan></text><path fill="#fff" d="M223.359 1164.762h305.806a26.9 26.9 0 0 1 10.325 2.054 26.9 26.9 0 0 1 8.754 5.849 27 27 0 0 1 3.356 4.089 27 27 0 0 1 2.493 4.665 26.9 26.9 0 0 1 2.054 10.326v125.92a26.9 26.9 0 0 1-2.054 10.326 26.9 26.9 0 0 1-5.849 8.754 26.9 26.9 0 0 1-8.754 5.85 26.9 26.9 0 0 1-10.326 2.054H223.358q-2.657 0-5.264-.519a26.9 26.9 0 0 1-13.816-7.385 26.9 26.9 0 0 1-5.849-8.754 26.9 26.9 0 0 1-2.054-10.326v-125.92a26.9 26.9 0 0 1 2.054-10.326 26.9 26.9 0 0 1 5.85-8.754 26.9 26.9 0 0 1 8.754-5.85 26.9 26.9 0 0 1 10.326-2.054z"/><path fill="none" stroke="#000" stroke-miterlimit="10" stroke-width="2.998" d="M223.359 1164.762h305.806a26.9 26.9 0 0 1 10.325 2.054 26.9 26.9 0 0 1 8.754 5.849 27 27 0 0 1 3.356 4.089 27 27 0 0 1 2.493 4.665 26.9 26.9 0 0 1 2.054 10.326v125.92a26.9 26.9 0 0 1-2.054 10.326 26.9 26.9 0 0 1-5.849 8.754 26.9 26.9 0 0 1-8.754 5.85 26.9 26.9 0 0 1-10.326 2.054H223.358q-2.657 0-5.264-.519a26.9 26.9 0 0 1-13.816-7.385 26.9 26.9 0 0 1-5.849-8.754 26.9 26.9 0 0 1-2.054-10.326v-125.92a26.9 26.9 0 0 1 2.054-10.326 26.9 26.9 0 0 1 5.85-8.754 26.9 26.9 0 0 1 8.754-5.85 26.9 26.9 0 0 1 10.326-2.054z"/><text font-family="sans-serif" font-size="12" transform="translate(233.759 1265.198)scale(2.9981)" xml:space="preserve"><tspan x="0 8.666 15.34 22.014 28.688 32.021 34.688 41.361 48.035 51.369 58.711 65.385 69.381 72.715 75.381 81.381 88.055" y="0">Updating Vertices</tspan></text><path fill="none" stroke="#000" stroke-miterlimit="10" stroke-width="2.998" d="M1095.806 1074.819q-719.544 0-719.544 70.875"/><path d="m376.262 1161.434-10.494-20.987 10.494 5.247 10.493-5.247z"/><path fill="none" stroke="#000" stroke-miterlimit="10" stroke-width="2.998" d="m376.262 1161.434-10.494-20.987 10.494 5.247 10.493-5.247z"/><path fill="#fff" d="M371.764 1055.331h638.596v38.976H371.764z"/><text font-family="sans-serif" font-size="11" transform="translate(371.195 1085.312)scale(2.9981)" xml:space="preserve"><tspan x="0 5.5 9.163 15.474 19.137 21.581 27.699 33.816 39.934 42.378 48.496 57.659 63.776 69.276 75.394 82.731 88.849 94.966 97.41 103.528 110.258 116.375 120.039 123.095 129.212 134.712 142.049 148.167 151.024 154.081 160.198 163.861 171.805 177.923 184.041 190.158 193.214 199.332 206.051" y="0">xrTriangleMeshBeginVertexBufferUpdateFB</tspan></text><path fill="none" stroke="#000" stroke-miterlimit="10" stroke-width="2.998" d="M1455.578 1074.819c499.693 0 749.525 23.625 749.555 70.875"/><path d="m2205.133 1161.434-10.494-20.987 10.494 5.247 10.493-5.277z"/><path fill="none" stroke="#000" stroke-miterlimit="10" stroke-width="2.998" d="m2205.133 1161.434-10.494-20.987 10.494 5.247 10.493-5.277z"/><path fill="#fff" d="M1645.957 1055.331h458.71v38.976h-458.71z"/><text font-family="sans-serif" font-size="11" transform="translate(1645.867 1085.312)scale(2.9981)" xml:space="preserve"><tspan x="0 5.5 9.163 15.474 19.137 21.581 27.699 33.816 39.934 42.378 48.496 57.659 63.776 69.276 75.394 82.731 88.849 94.966 97.41 103.528 111.472 117.589 123.707 129.825 132.881 138.999 145.718" y="0">xrTriangleMeshBeginUpdateFB</tspan></text><path fill="#fff" d="M1122.789 984.876h305.806a26.9 26.9 0 0 1 10.325 2.054 27 27 0 0 1 4.665 2.493 26.9 26.9 0 0 1 9.938 12.11 26.9 26.9 0 0 1 2.054 10.326l.001 125.92a26.9 26.9 0 0 1-2.054 10.326 27 27 0 0 1-2.494 4.665 26.9 26.9 0 0 1-7.444 7.445 26.9 26.9 0 0 1-9.727 4.029 27 27 0 0 1-5.264.518h-305.806a26.9 26.9 0 0 1-10.326-2.054 26.9 26.9 0 0 1-8.754-5.849 27 27 0 0 1-3.356-4.09 27 27 0 0 1-2.493-4.664 26.9 26.9 0 0 1-2.054-10.326v-125.92a26.9 26.9 0 0 1 2.054-10.326 26.9 26.9 0 0 1 5.849-8.754 26.9 26.9 0 0 1 8.754-5.85 26.9 26.9 0 0 1 10.326-2.053"/><path fill="none" stroke="#000" stroke-miterlimit="10" stroke-width="2.998" d="M1122.789 984.876h305.806a26.9 26.9 0 0 1 10.325 2.054 27 27 0 0 1 4.665 2.493 26.9 26.9 0 0 1 9.938 12.11 26.9 26.9 0 0 1 2.054 10.326l.001 125.92a26.9 26.9 0 0 1-2.054 10.326 27 27 0 0 1-2.494 4.665 26.9 26.9 0 0 1-7.444 7.445 26.9 26.9 0 0 1-9.727 4.029 27 27 0 0 1-5.264.518h-305.806a26.9 26.9 0 0 1-10.326-2.054 26.9 26.9 0 0 1-8.754-5.849 27 27 0 0 1-3.356-4.09 27 27 0 0 1-2.493-4.664 26.9 26.9 0 0 1-2.054-10.326v-125.92a26.9 26.9 0 0 1 2.054-10.326 26.9 26.9 0 0 1 5.849-8.754 26.9 26.9 0 0 1 8.754-5.85 26.9 26.9 0 0 1 10.326-2.053z"/><g font-family="sans-serif" font-size="12"><text transform="translate(1222.205 1085.312)scale(2.9981)" xml:space="preserve"><tspan x="0 8.666 15.34 22.014 28.688" y="0">Ready</tspan></text><text transform="translate(1907.93 1603.984)scale(2.9981)" xml:space="preserve"><tspan x="0 9.996 16.67 22.67 26.004 32.004 38.678 45.352 52.025 58.699 65.373 68.707 74.707 81.381 85.377 88.711 95.385 101.385 104.719 111.393 118.066 121.184 124.518 131.191 135.188 138.521 144.521 147.188 153.188 159.861 163.195 169.869 176.543 183.217 186.551 193.225" y="0">May change vertex buffer size and/or</tspan></text><text transform="translate(1860.92 1648.955)scale(2.9981)" xml:space="preserve"><tspan x="0 6 12.674 19.348 22.682 29.355 36.029 39.363 45.363 48.697 52.031 54.697 61.371 68.045 74.719 80.719 84.053 90.727 97.4 100.518 103.852 110.525 114.521 117.855 123.855 126.521 132.521 139.195 142.529 149.203 155.877 162.551 165.885 172.559 176.555 179.889 185.889 192.563 199.236 202.57 209.244 215.918 219.252 225.252" y="0">contents, index buffer size and/or contents.</tspan></text><text transform="translate(34.103 1603.984)scale(2.9981)" xml:space="preserve"><tspan x="0 9.996 16.67 22.67 26.004 32.004 38.678 45.352 52.025 58.699 65.373 68.707 74.707 81.381 85.377 88.711 95.385 101.385 104.719 111.393 118.066 121.184 124.518 131.191 135.188 138.521 144.521 151.195 157.869 161.203 167.877 174.551 177.885 183.885 187.219 190.553 197.227 203.9 207.234 210.568 217.242 223.916" y="0">May change vertex buffer contents, but not</tspan></text><text transform="translate(337.766 1648.955)scale(2.9981)" xml:space="preserve"><tspan x="0 6 8.666 14.666 21.34" y="0">size.</tspan></text></g><path fill="none" stroke="#000" stroke-miterlimit="10" stroke-width="2.998" d="M1275.692 775.009v190.799"/><path d="m1275.692 981.548-10.494-20.987 10.494 5.247 10.493-5.247z"/><path fill="none" stroke="#000" stroke-miterlimit="10" stroke-width="2.998" d="m1275.692 981.548-10.494-20.987 10.494 5.247 10.493-5.247z"/><path fill="#fff" d="M722.542 860.455h1106.299v38.975H722.542z"/><text font-family="sans-serif" font-size="11" transform="translate(723.891 890.436)scale(2.9981)" xml:space="preserve"><tspan x="0 5.5 9.163 15.474 19.137 21.581 27.699 33.816 39.934 42.378 48.496 57.659 63.776 69.276 75.394 82.731 88.849 94.966 102.91 109.028 115.146 121.263 124.319 130.437 137.156 144.493 147.549 153.667 156.723 159.779 165.897 169.56 172.616 178.116 184.234 187.29 190.346 192.79 198.908 205.025 208.082 214.199 220.317 223.373 229.491 232.547 235.603 241.721 247.838 250.895 253.338 259.456 265.574 271.691 277.191 280.248 286.365 292.483 298.601 301.657 307.157 313.274 316.938 319.994 326.111 331.611 334.667 340.785 346.903 349.76 352.816 358.934 362.597" y="0">xrTriangleMeshEndUpdateFB after setting both the index and vertex buffers</tspan></text><path fill="#fff" d="M1122.789 595.123h305.806q2.657 0 5.264.518a26.9 26.9 0 0 1 13.816 7.385 26.9 26.9 0 0 1 5.849 8.754 26.9 26.9 0 0 1 2.054 10.326v125.92a26.9 26.9 0 0 1-2.054 10.326 27 27 0 0 1-2.494 4.665 27 27 0 0 1-3.355 4.088 27 27 0 0 1-4.09 3.356 26.9 26.9 0 0 1-9.726 4.029 27 27 0 0 1-5.264.519h-305.806a26.9 26.9 0 0 1-10.326-2.055 26.9 26.9 0 0 1-8.754-5.849 27 27 0 0 1-3.356-4.089 26.93 26.93 0 0 1-4.547-14.99v-125.92a26.9 26.9 0 0 1 2.054-10.326 26.9 26.9 0 0 1 5.849-8.754 26.9 26.9 0 0 1 8.754-5.85 26.9 26.9 0 0 1 10.326-2.054z"/><path fill="none" stroke="#000" stroke-miterlimit="10" stroke-width="2.998" d="M1122.789 595.123h305.806q2.657 0 5.264.518a26.9 26.9 0 0 1 13.816 7.385 26.9 26.9 0 0 1 5.849 8.754 26.9 26.9 0 0 1 2.054 10.326v125.92a26.9 26.9 0 0 1-2.054 10.326 27 27 0 0 1-2.494 4.665 27 27 0 0 1-3.355 4.088 27 27 0 0 1-4.09 3.356 26.9 26.9 0 0 1-9.726 4.029 27 27 0 0 1-5.264.519h-305.806a26.9 26.9 0 0 1-10.326-2.055 26.9 26.9 0 0 1-8.754-5.849 27 27 0 0 1-3.356-4.089 26.93 26.93 0 0 1-4.547-14.99v-125.92a26.9 26.9 0 0 1 2.054-10.326 26.9 26.9 0 0 1 5.849-8.754 26.9 26.9 0 0 1 8.754-5.85 26.9 26.9 0 0 1 10.326-2.054z"/><text font-family="sans-serif" font-size="12" transform="translate(1131.513 695.56)scale(2.9981)" xml:space="preserve"><tspan x="0 8.666 15.34 18.674 21.34 28.014 30.68 37.354 44.027 47.145 53.145 59.818 66.492 73.166 75.832 82.506 89.18" y="0">Defining Topology</tspan></text><path fill="none" stroke="#000" stroke-miterlimit="10" stroke-width="2.998" d="M1275.692 25.484V156.29"/><path d="m1275.692 172.031-10.494-20.987 10.494 5.247 10.493-5.247z"/><path fill="none" stroke="#000" stroke-miterlimit="10" stroke-width="2.998" d="m1275.692 172.031-10.494-20.987 10.494 5.247 10.493-5.247z"/><path fill="#fff" d="M1091.308 80.949h368.767v38.975h-368.767z"/><text font-family="sans-serif" font-size="11" transform="translate(1092.118 110.93)scale(2.9981)" xml:space="preserve"><tspan x="0 5.5 9.163 17.107 20.77 26.888 33.005 36.062 42.179 48.49 52.153 54.597 60.715 66.833 72.95 75.394 81.512 90.675 96.792 102.292 108.41 115.129" y="0">xrCreateTriangleMeshFB</tspan></text></g></svg>